<svg width="180" height="273" viewBox="0 0 180 273" fill="none" xmlns="http://www.w3.org/2000/svg">
<path d="M94.5675 109.875L19.4259 130.606C19.4259 130.606 5.625 130.218 5.625 144.877C5.625 150.926 8.30812 155.435 8.30812 155.435L65.5538 251.178C71.0269 259.897 82.6509 254.438 82.6509 254.438L170.432 211.673L167.147 208.341C166.373 204.338 165.923 196.928 171.357 191.409C171.478 191.286 171.501 191.117 171.565 190.962L174.375 189.834L94.5675 109.875ZM54.9141 165.861L41.3691 144.553L96.8991 128.134L112.264 144.86L54.9141 165.861V165.861ZM164.284 200.272C164.101 201.565 164.008 202.825 164.028 204.007L106.403 231.358L164.233 206.816C164.289 207.263 164.34 207.713 164.41 208.118L90.54 243.798L164.993 210.779L165.038 210.953L82.6509 250.365C82.6116 250.39 78.8512 252.39 75.0825 252.39C71.3587 252.39 69.0384 250.478 67.9809 246.546C65.2612 236.443 80.7131 230.717 80.9466 230.633L166.399 193.662C165.786 194.787 165.361 195.932 165.007 197.074L110.762 222.608L164.284 200.272" fill="#6C63FF"/>
<path d="M125 13.75C147.687 13.75 166.25 32.3125 166.25 55C166.25 77.6875 147.687 96.25 125 96.25C102.313 96.25 83.75 77.6875 83.75 55C83.75 32.3125 102.313 13.75 125 13.75ZM125 6.875C98.5313 6.875 76.875 28.5313 76.875 55C76.875 81.4687 98.5313 103.125 125 103.125C151.469 103.125 173.125 81.4687 173.125 55C173.125 28.5313 151.469 6.875 125 6.875Z" fill="#6C63FF"/>
<path d="M152.5 51.5625H128.438V27.5H121.562V51.5625H97.5V58.4375H121.562V82.5H128.438V58.4375H152.5V51.5625Z" fill="#6C63FF"/>
</svg>
