<svg width="180" height="180" viewBox="0 0 180 180" fill="none" xmlns="http://www.w3.org/2000/svg">
<path d="M94.5675 16.875L19.4259 37.6059C19.4259 37.6059 5.625 37.2178 5.625 51.8766C5.625 57.9262 8.30812 62.4347 8.30812 62.4347L65.5538 158.178C71.0269 166.897 82.6509 161.438 82.6509 161.438L170.432 118.673L167.147 115.341C166.373 111.338 165.923 103.928 171.357 98.4094C171.478 98.2856 171.501 98.1169 171.565 97.9622L174.375 96.8344L94.5675 16.875ZM54.9141 72.8606L41.3691 51.5531L96.8991 35.1337L112.264 51.8597L54.9141 72.8606V72.8606ZM164.284 107.272C164.101 108.565 164.008 109.825 164.028 111.007L106.403 138.358L164.233 113.816C164.289 114.263 164.34 114.713 164.41 115.118L90.54 150.798L164.993 117.779L165.038 117.953L82.6509 157.365C82.6116 157.39 78.8512 159.39 75.0825 159.39C71.3587 159.39 69.0384 157.478 67.9809 153.546C65.2612 143.443 80.7131 137.717 80.9466 137.633L166.399 100.662C165.786 101.787 165.361 102.932 165.007 104.074L110.762 129.608L164.284 107.272" fill="#6C63FF"/>
</svg>
