<svg width="180" height="180" viewBox="0 0 180 180" fill="none" xmlns="http://www.w3.org/2000/svg">
<path d="M76.5 18C73.7071 17.9985 70.9824 18.8634 68.7016 20.4753C66.4207 22.0872 64.696 24.3668 63.765 27H49.5C45.9196 27 42.4858 28.4223 39.9541 30.9541C37.4223 33.4858 36 36.9196 36 40.5V148.5C36 152.08 37.4223 155.514 39.9541 158.046C42.4858 160.578 45.9196 162 49.5 162H130.5C134.08 162 137.514 160.578 140.046 158.046C142.578 155.514 144 152.08 144 148.5V40.5C144 36.9196 142.578 33.4858 140.046 30.9541C137.514 28.4223 134.08 27 130.5 27H116.235C115.304 24.3668 113.579 22.0872 111.298 20.4753C109.018 18.8634 106.293 17.9985 103.5 18H76.5ZM72 31.5C72 30.3065 72.4741 29.1619 73.318 28.318C74.1619 27.4741 75.3065 27 76.5 27H103.5C104.693 27 105.838 27.4741 106.682 28.318C107.526 29.1619 108 30.3065 108 31.5C108 32.6935 107.526 33.8381 106.682 34.682C105.838 35.5259 104.693 36 103.5 36H76.5C75.3065 36 74.1619 35.5259 73.318 34.682C72.4741 33.8381 72 32.6935 72 31.5ZM84.186 70.686L68.436 86.436C67.6162 87.2549 66.512 87.7259 65.3536 87.7511C64.1951 87.7762 63.0716 87.3535 62.217 86.571L55.467 80.406C55.0083 80.014 54.6332 79.5337 54.3639 78.9937C54.0946 78.4537 53.9366 77.8651 53.8994 77.2629C53.8621 76.6606 53.9464 76.057 54.1472 75.488C54.3479 74.919 54.6611 74.3962 55.068 73.9506C55.4749 73.5051 55.9673 73.1459 56.5158 72.8945C57.0643 72.6431 57.6578 72.5046 58.2609 72.4871C58.8641 72.4697 59.4646 72.5738 60.0267 72.7932C60.5888 73.0125 61.1011 73.3427 61.533 73.764L65.106 77.022L77.814 64.314C78.2324 63.8956 78.7291 63.5637 79.2757 63.3373C79.8224 63.1109 80.4083 62.9943 81 62.9943C81.5917 62.9943 82.1776 63.1109 82.7243 63.3373C83.2709 63.5637 83.7676 63.8956 84.186 64.314C84.6044 64.7324 84.9363 65.2291 85.1627 65.7757C85.3891 66.3224 85.5057 66.9083 85.5057 67.5C85.5057 68.0917 85.3891 68.6776 85.1627 69.2243C84.9363 69.7709 84.6044 70.2676 84.186 70.686V70.686ZM84.186 109.314C84.6051 109.732 84.9376 110.229 85.1644 110.775C85.3913 111.322 85.508 111.908 85.508 112.5C85.508 113.092 85.3913 113.678 85.1644 114.225C84.9376 114.771 84.6051 115.268 84.186 115.686L68.436 131.436C67.6162 132.255 66.512 132.726 65.3536 132.751C64.1951 132.776 63.0716 132.354 62.217 131.571L55.467 125.406C54.631 124.591 54.1448 123.482 54.1111 122.315C54.0774 121.147 54.4988 120.012 55.2864 119.15C56.074 118.288 57.1659 117.765 58.3316 117.693C59.4972 117.621 60.6452 118.005 61.533 118.764L65.106 122.031L77.814 109.314C78.232 108.895 78.7286 108.562 79.2753 108.336C79.822 108.109 80.4081 107.992 81 107.992C81.5919 107.992 82.178 108.109 82.7247 108.336C83.2714 108.562 83.768 108.895 84.186 109.314V109.314ZM99 117H121.5C122.693 117 123.838 117.474 124.682 118.318C125.526 119.162 126 120.307 126 121.5C126 122.693 125.526 123.838 124.682 124.682C123.838 125.526 122.693 126 121.5 126H99C97.8065 126 96.6619 125.526 95.818 124.682C94.9741 123.838 94.5 122.693 94.5 121.5C94.5 120.307 94.9741 119.162 95.818 118.318C96.6619 117.474 97.8065 117 99 117ZM94.5 76.5C94.5 75.3065 94.9741 74.1619 95.818 73.318C96.6619 72.4741 97.8065 72 99 72H121.5C122.693 72 123.838 72.4741 124.682 73.318C125.526 74.1619 126 75.3065 126 76.5C126 77.6935 125.526 78.8381 124.682 79.682C123.838 80.5259 122.693 81 121.5 81H99C97.8065 81 96.6619 80.5259 95.818 79.682C94.9741 78.8381 94.5 77.6935 94.5 76.5Z" fill="#6C63FF"/>
</svg>
