<svg width="180" height="180" viewBox="0 0 180 180" fill="none" xmlns="http://www.w3.org/2000/svg">
<path d="M109.26 37.6198C117.28 45.6496 122.3 56.1899 123.479 67.4775C124.659 78.7651 121.927 90.1154 115.74 99.6298C116.82 100.53 117.72 101.52 118.98 102.42C120.78 103.86 123.21 105.66 126.27 107.73C129.33 109.89 131.31 111.24 132.21 111.96C135.99 114.75 138.78 117.09 140.67 118.98C143.55 121.86 146.07 124.83 148.23 127.98C150.48 131.13 152.19 134.19 153.54 137.34C154.8 140.49 155.43 143.46 155.16 146.34C154.98 149.22 153.9 151.65 151.92 153.63C149.94 155.61 147.51 156.69 144.63 156.87C141.84 157.05 138.78 156.51 135.72 155.16C132.57 153.9 129.42 152.1 126.36 149.85C123.21 147.69 120.24 145.17 117.36 142.29C115.47 140.4 113.13 137.61 110.43 133.92C109.53 132.75 108.18 130.77 106.2 127.98C104.22 125.1 102.6 122.85 101.16 120.96C99.72 119.16 98.55 117.81 97.2 116.46C87.8585 121.351 77.1995 123.133 66.7748 121.547C56.3501 119.961 46.7038 115.089 39.24 107.64C19.98 88.2898 19.98 56.8798 39.24 37.6198C43.8356 33.0187 49.2931 29.3686 55.3004 26.8782C61.3077 24.3878 67.747 23.1059 74.25 23.1059C80.7531 23.1059 87.1924 24.3878 93.1997 26.8782C99.207 29.3686 104.664 33.0187 109.26 37.6198V37.6198ZM96.57 94.8598C102.45 88.9372 105.749 80.9303 105.749 72.5848C105.749 64.2394 102.45 56.2324 96.57 50.3098C93.648 47.3791 90.1763 45.0538 86.3539 43.4672C82.5315 41.8806 78.4336 41.0639 74.295 41.0639C70.1565 41.0639 66.0586 41.8806 62.2362 43.4672C58.4138 45.0538 54.9421 47.3791 52.02 50.3098C49.0893 53.2319 46.764 56.7036 45.1774 60.526C43.5908 64.3483 42.7741 68.4462 42.7741 72.5848C42.7741 76.7234 43.5908 80.8213 45.1774 84.6437C46.764 88.466 49.0893 91.9377 52.02 94.8598C54.9421 97.7906 58.4138 100.116 62.2362 101.702C66.0586 103.289 70.1565 104.106 74.295 104.106C78.4336 104.106 82.5315 103.289 86.3539 101.702C90.1763 100.116 93.648 97.7906 96.57 94.8598V94.8598Z" fill="#6C63FF"/>
</svg>
